<svg id="facebook" xmlns="http://www.w3.org/2000/svg" width="30" height="30" viewBox="0 0 30 30">
  <path id="Path_9" data-name="Path 9" d="M30,15A15,15,0,1,0,12.655,29.823V19.34H8.846V15h3.809V11.7c0-3.759,2.239-5.836,5.666-5.836a23.056,23.056,0,0,1,3.357.293V9.847H19.785A2.168,2.168,0,0,0,17.34,12.19V15H21.5l-.666,4.338H17.34V29.826A15,15,0,0,0,30,15Z" transform="translate(0 0)" fill="#1877f2"/>
  <path id="Path_10" data-name="Path 10" d="M48.549,37.68l.666-4.338h-4.16V30.527A2.168,2.168,0,0,1,47.5,28.184h1.893V24.493a23.056,23.056,0,0,0-3.357-.293c-3.427,0-5.666,2.077-5.666,5.836v3.3H36.56v4.338h3.809V48.161a14.973,14.973,0,0,0,2.343.182,15.248,15.248,0,0,0,2.343-.182V37.677h3.495Z" transform="translate(-27.712 -18.342)" fill="#fff"/>
</svg>
